<svg width="144" height="82" viewBox="0 0 144 82" fill="none" xmlns="http://www.w3.org/2000/svg">
<path d="M76.1424 65.972L75 67.3148L73.8576 65.972L61.7332 51.722L59.6299 49.25H62.8756H87.1244H90.3701L88.2668 51.722L76.1424 65.972Z" fill="white" stroke="#E2E2E2" stroke-width="3"/>
<rect x="1.5" y="23.5" width="141" height="34" rx="17" fill="white" stroke="#E2E2E2" stroke-width="3"/>
<path d="M75 65L87.1244 50.75H62.8756L75 65Z" fill="white"/>
<path d="M27.8261 39.4331L22.5941 39.4536C22.4646 39.4541 22.3806 39.311 22.4394 39.1904L25.3314 33.2647C25.4184 33.0865 25.2055 32.9142 25.0626 33.0471L16.0584 41.4214C15.9401 41.5314 16.0135 41.7361 16.1717 41.7375L20.9482 41.7803C21.0727 41.7814 21.1554 41.9157 21.1047 42.0348L18.6749 47.7442C18.5996 47.9212 18.8069 48.0815 18.9465 47.9542L27.9404 39.7504C28.0611 39.6403 27.9862 39.4324 27.8261 39.4331V39.4331Z" fill="#FFB636"/>
<path d="M40.4008 46.168C42.1048 46.168 43.5328 45.232 43.5328 43.6C43.5328 42.424 42.7648 41.692 41.7568 41.404V41.344C42.7048 40.984 43.2328 40.276 43.2328 39.328C43.2328 37.804 42.0688 36.964 40.3528 36.964C39.3208 36.964 38.4688 37.384 37.7008 38.044L38.6008 39.136C39.1288 38.644 39.6448 38.344 40.2808 38.344C41.0368 38.344 41.4688 38.764 41.4688 39.46C41.4688 40.252 40.9408 40.804 39.3088 40.804V42.076C41.2408 42.076 41.7568 42.616 41.7568 43.492C41.7568 44.284 41.1448 44.74 40.2328 44.74C39.4288 44.74 38.7928 44.332 38.2648 43.816L37.4248 44.932C38.0488 45.652 38.9968 46.168 40.4008 46.168ZM44.53 44.512V45.808H54.586V44.512H44.53ZM48.754 42.376V45.184H50.35V42.376H48.754ZM48.742 38.272V38.512C48.742 39.784 47.542 41.164 44.842 41.488L45.418 42.748C48.466 42.352 50.158 40.636 50.158 38.512V38.272H48.742ZM48.958 38.272V38.512C48.958 40.636 50.638 42.352 53.686 42.748L54.262 41.488C51.562 41.164 50.362 39.784 50.362 38.512V38.272H48.958ZM45.382 37.456V38.74H53.722V37.456H45.382ZM48.754 36.1V37.984H50.35V36.1H48.754ZM55.716 36.868V42.232H61.008V36.868H55.716ZM59.436 38.128V40.972H57.288V38.128H59.436ZM62.544 35.956V44.056H64.14V35.956H62.544ZM63.684 39.16V40.468H65.616V39.16H63.684ZM56.976 45.604V46.876H64.536V45.604H56.976ZM56.976 43.264V46.24H58.572V43.264H56.976ZM70.7061 40.048V41.332H72.5301V40.048H70.7061ZM74.2941 35.956V47.068H75.8181V35.956H74.2941ZM72.0261 36.124V46.564H73.5261V36.124H72.0261ZM68.7621 36.736C67.2981 36.736 66.3621 38.26 66.3621 40.768C66.3621 43.288 67.2981 44.812 68.7621 44.812C70.2381 44.812 71.1861 43.288 71.1861 40.768C71.1861 38.26 70.2381 36.736 68.7621 36.736ZM68.7621 38.236C69.3861 38.236 69.7341 39.076 69.7341 40.768C69.7341 42.472 69.3861 43.3 68.7621 43.3C68.1621 43.3 67.8141 42.472 67.8141 40.768C67.8141 39.076 68.1621 38.236 68.7621 38.236ZM86.7979 35.944V47.056H88.4059V35.944H86.7979ZM87.9859 40.192V41.5H89.9419V40.192H87.9859ZM83.8819 37.096V37.372C83.8819 40.384 82.5019 42.424 79.5859 43.936L80.4739 45.148C84.1699 43.288 85.4419 40.432 85.4419 37.096H83.8819ZM80.1979 37.096V38.38H84.6979V37.096H80.1979ZM98.2 35.956V41.932H99.808V35.956H98.2ZM92.416 42.412V46.948H99.808V42.412H98.224V43.444H93.988V42.412H92.416ZM93.988 44.668H98.224V45.676H93.988V44.668ZM93.76 36.412C92.032 36.412 90.736 37.504 90.736 39.04C90.736 40.576 92.032 41.668 93.76 41.668C95.488 41.668 96.772 40.576 96.772 39.04C96.772 37.504 95.488 36.412 93.76 36.412ZM93.76 37.732C94.6 37.732 95.212 38.224 95.212 39.04C95.212 39.868 94.6 40.348 93.76 40.348C92.908 40.348 92.296 39.868 92.296 39.04C92.296 38.224 92.908 37.732 93.76 37.732ZM108.57 35.956V47.068H110.154V35.956H108.57ZM109.794 40.288V41.62H111.762V40.288H109.794ZM101.394 37.6V38.872H107.862V37.6H101.394ZM104.646 39.496C103.026 39.496 101.826 40.6 101.826 42.148C101.826 43.696 103.026 44.8 104.646 44.8C106.266 44.8 107.466 43.696 107.466 42.148C107.466 40.6 106.266 39.496 104.646 39.496ZM104.646 40.792C105.402 40.792 105.942 41.296 105.942 42.148C105.942 43 105.402 43.504 104.646 43.504C103.89 43.504 103.35 43 103.35 42.148C103.35 41.296 103.89 40.792 104.646 40.792ZM103.842 36.136V38.08H105.438V36.136H103.842ZM119.972 35.956V47.068H121.58V35.956H119.972ZM116.696 37.108V37.396C116.696 40.372 115.544 42.388 112.352 43.924L113.18 45.196C117.128 43.288 118.28 40.504 118.28 37.108H116.696ZM112.94 37.108V38.368H117.452V37.108H112.94Z" fill="#666666"/>
</svg>
